<svg preserveAspectRatio="xMidYMid meet" data-bbox="0 0 154.84 154.84" viewBox="0 0 154.84 154.84" xmlns="http://www.w3.org/2000/svg" data-type="ugc" role="img" aria-label="Share article on Twitter">
    <g>
        <g>
            <path d="M133.26 43.42a47 47 0 0 1-13 3.55 22.37 22.37 0 0 0 9.89-12.43A44.82 44.82 0 0 1 115.93 40 22.48 22.48 0 0 0 77 55.36a23.18 23.18 0 0 0 .52 5.12A63.65 63.65 0 0 1 31.22 37a22.48 22.48 0 0 0 6.91 30A22.32 22.32 0 0 1 28 64.25v.24a22.61 22.61 0 0 0 18 22.1 22.2 22.2 0 0 1-5.9.74 20.29 20.29 0 0 1-4.26-.39 22.69 22.69 0 0 0 21 15.66A45.11 45.11 0 0 1 29 112.19a42 42 0 0 1-5.38-.31A63.26 63.26 0 0 0 58.08 122c41.37 0 64-34.27 64-64 0-1 0-2-.08-2.91a45.11 45.11 0 0 0 11.26-11.67z"></path>
            <path d="M154.84 0v154.84H0V0z" fill="none"></path>
        </g>
    </g>
</svg>